PathFileType	4	(X/Y/Z)	C:\Users\86182\Documents\cortex\Trimmed_M1_L16.trc
DataRate	CameraRate	NumFrames	NumMarkers	Units	OrigDataRate	OrigDataStartFrame	OrigNumFrames
100.00	100.00	       99	2	mm	100.00	191	       951
Frame#	Time	gripper			box			
		X1	Y1	Z1	X2	Y2	Z2	

191	1.900	227.86253	206.09769	206.27631	233.96112	205.61380	64.82126	
192	1.910	227.84195	206.10925	206.73811	234.09163	205.65926	65.06609	
193	1.920	227.81458	206.12170	207.19630	233.13675	205.73799	65.77765	
194	1.930	227.77878	206.13596	207.64980	234.13269	205.66638	65.78919	
195	1.940	227.73671	206.15118	208.09621	233.81757	205.59470	66.44791	
196	1.950	227.69548	206.16510	208.53203	233.60690	205.72156	66.71959	
197	1.960	227.66260	206.17581	208.95593	233.47377	205.77965	67.09071	
198	1.970	227.64172	206.18259	209.37009	233.30701	205.75020	67.67690	
199	1.980	227.63286	206.18526	209.77777	233.17108	205.69322	68.25848	
200	1.990	227.63535	206.18358	210.18217	233.19069	205.64502	68.57912	
201	2.000	227.64902	206.17772	210.58752	233.70682	205.71605	68.93536	
202	2.010	227.67285	206.16927	210.99890	233.61172	205.67459	69.14980	
203	2.020	227.70480	206.16074	211.41971	233.32993	205.65143	69.75666	
204	2.030	227.74191	206.15424	211.85109	233.06345	205.62616	70.51211	
205	2.040	227.78015	206.15091	212.29298	233.34184	205.69080	70.79261	
206	2.050	227.81567	206.15170	212.74370	233.43224	205.73448	70.99754	
207	2.060	227.84586	206.15765	213.20024	233.68774	205.67699	71.44518	
208	2.070	227.86774	206.16896	213.66060	233.46587	205.63803	72.06369	
209	2.080	227.87732	206.18425	214.12411	233.33890	205.88239	72.71393	
210	2.090	227.87148	206.20148	214.58890	233.19554	205.81200	73.18576	
211	2.100	227.84885	206.21927	215.05159	233.06369	205.71347	73.59657	
212	2.110	227.80899	206.23694	215.50964	233.20007	205.75464	73.99814	
213	2.120	227.75488	206.25378	215.96138	233.69368	205.86566	74.14760	
214	2.130	227.69598	206.26877	216.40521	233.48024	205.78035	74.67135	
215	2.140	227.64549	206.28029	216.84088	233.01353	205.65038	75.45716	
216	2.150	227.61192	206.28645	217.27011	232.63470	205.68782	76.11551	
217	2.160	227.59290	206.28720	217.69638	232.53496	205.61392	76.32379	
218	2.170	227.57774	206.28546	218.12453	232.30836	205.41379	76.84906	
219	2.180	227.55681	206.28511	218.55934	232.86313	205.57521	77.02590	
220	2.190	227.52838	206.28751	219.00244	232.97163	205.69225	77.50909	
221	2.200	227.49706	206.29106	219.45190	232.46017	205.53291	78.20899	
222	2.210	227.46460	206.29315	219.90683	232.36807	205.49454	78.75450	
223	2.220	227.42485	206.29178	220.36940	232.27545	205.55649	79.03235	
224	2.230	227.37093	206.28578	220.83990	232.69618	205.59340	79.46799	
225	2.240	227.30492	206.27464	221.31375	232.57939	205.56522	79.82797	
226	2.250	227.23561	206.25891	221.78571	231.67126	205.64058	80.72526	
227	2.260	227.16864	206.24068	222.25342	231.45132	205.61104	81.35819	
228	2.270	227.10268	206.22194	222.71626	231.98662	205.70251	81.62611	
229	2.280	227.03528	206.20262	223.17346	231.63000	205.71759	81.98342	
230	2.290	226.96991	206.18129	223.62384	231.63904	205.64633	82.44027	
231	2.300	226.91397	206.15747	224.06653	231.24673	205.52609	82.86388	
232	2.310	226.87012	206.13271	224.50266	231.81224	205.61566	83.30421	
233	2.320	226.83327	206.10976	224.93634	231.65724	205.62726	83.83577	
234	2.330	226.79662	206.09116	225.37202	231.48389	205.62230	84.29589	
235	2.340	226.75888	206.07787	225.81070	231.44099	205.57024	84.51270	
236	2.350	226.72610	206.06897	226.25101	231.11365	205.58511	84.89339	
237	2.360	226.70676	206.06357	226.69321	231.51804	205.56448	85.46597	
238	2.370	226.70445	206.06274	227.13972	231.75362	205.53300	85.74923	
239	2.380	226.71449	206.06831	227.59251	231.75307	205.60970	86.24999	
240	2.390	226.72903	206.08064	228.05113	231.61720	205.62711	86.66125	
241	2.400	226.74673	206.09877	228.51242	231.51996	205.64294	87.30525	
242	2.410	226.77222	206.12103	228.97258	231.60828	205.61142	87.75031	
243	2.420	226.80479	206.14468	229.43094	231.69612	205.68568	87.96314	
244	2.430	226.83398	206.16646	229.89008	232.26776	205.81371	88.60353	
245	2.440	226.84651	206.18346	230.35150	231.80605	205.62663	89.19081	
246	2.450	226.83533	206.19299	230.81367	231.61699	205.84361	89.68771	
247	2.460	226.80312	206.19392	231.27470	231.47031	205.74773	89.92673	
248	2.470	226.76009	206.18811	231.73315	232.07541	205.79320	90.40500	
249	2.480	226.71802	206.17915	232.18594	231.91765	205.73106	90.96057	
250	2.490	226.68240	206.16998	232.62895	231.93138	205.74452	91.35457	
251	2.500	226.65150	206.16296	233.06009	231.81630	205.78717	91.67564	
252	2.510	226.62262	206.16028	233.48117	231.96986	205.91479	92.17566	
253	2.520	226.59642	206.16220	233.89711	231.70857	205.76375	92.47864	
254	2.530	226.57774	206.16624	234.31300	231.60213	205.71066	92.88699	
255	2.540	226.57416	206.16954	234.73138	232.04478	205.84985	93.00110	
256	2.550	226.58842	206.17143	235.15274	231.68019	205.76361	93.83041	
257	2.560	226.61221	206.17305	235.57875	231.92065	205.72676	94.36708	
258	2.570	226.63368	206.17561	236.01266	231.74828	205.75894	94.64589	
259	2.580	226.65018	206.17935	236.45618	231.90950	205.80724	94.75162	
260	2.590	226.66913	206.18356	236.90718	232.09097	205.67851	95.36121	
261	2.600	226.69704	206.18756	237.36160	231.91531	205.80759	96.18099	
262	2.610	226.73131	206.19170	237.81624	231.88217	205.84119	96.46507	
263	2.620	226.76477	206.19682	238.26926	232.23228	205.94472	96.71983	
264	2.630	226.79575	206.20299	238.71808	231.95239	205.72107	97.45721	
265	2.640	226.82903	206.20911	239.15912	232.04300	205.79156	97.70323	
266	2.650	226.86583	206.21399	239.59030	232.23457	205.86295	98.02155	
267	2.660	226.89738	206.21750	240.01321	232.18332	205.85750	98.57395	
268	2.670	226.91243	206.22047	240.43207	232.12778	205.68486	99.25035	
269	2.680	226.90933	206.22342	240.85083	232.10149	205.77278	99.52128	
270	2.690	226.89748	206.22595	241.27034	232.35951	205.87912	99.50444	
271	2.700	226.88921	206.22760	241.68819	232.17604	205.77603	100.03481	
272	2.710	226.89014	206.22870	242.10242	232.16222	205.70586	100.71184	
273	2.720	226.89493	206.22998	242.51547	232.28625	205.81870	101.17783	
274	2.730	226.89394	206.23189	242.93274	231.88078	205.88194	101.43434	
275	2.740	226.88426	206.23444	243.35779	232.13799	205.73245	101.88934	
276	2.750	226.87093	206.23734	243.79088	232.14813	205.67535	102.30639	
277	2.760	226.85953	206.24023	244.23053	232.22969	205.81282	102.56536	
278	2.770	226.85257	206.24367	244.67496	232.33649	205.79372	103.01192	
279	2.780	226.85060	206.24901	245.12299	231.90129	205.78134	103.75783	
280	2.790	226.85355	206.25694	245.57407	232.01900	205.78709	104.29058	
281	2.800	226.86395	206.26645	246.02603	232.61197	205.85136	104.37177	
282	2.810	226.88872	206.27551	246.47397	232.36305	205.84828	104.67618	
283	2.820	226.93465	206.28241	246.91287	232.13051	205.80745	105.23280	
284	2.830	227.00447	206.28658	247.33984	232.18495	205.84743	106.06740	
285	2.840	227.09880	206.28822	247.75323	232.29425	205.97806	106.39093	
286	2.850	227.21790	206.28732	248.15247	232.62003	205.81453	106.62330	
287	2.860	227.35562	206.28389	248.53986	232.70532	205.81715	106.97260	
288	2.870	227.48965	206.27989	248.92326	232.26955	205.90648	107.53453	
289	2.880	227.57382	206.28081	249.31973	232.29787	206.02016	108.10941	
